<svg width="12" height="12" viewBox="0 0 12 12" fill="none" xmlns="http://www.w3.org/2000/svg">
<path d="M1.36937 0.23502C1.05601 -0.0783399 0.548379 -0.0783399 0.23502 0.23502C-0.0783399 0.548379 -0.0783399 1.056 0.23502 1.36876L4.86625 5.99999L0.23502 10.6312C-0.0783399 10.944 -0.0783399 11.4522 0.23502 11.765C0.548379 12.0783 1.05601 12.0783 1.36937 11.765L6 7.13433L10.6312 11.765C10.944 12.0783 11.4522 12.0783 11.765 11.765C12.0783 11.4522 12.0783 10.944 11.765 10.6312L7.13435 5.99999L11.765 1.36876C12.0783 1.056 12.0783 0.548379 11.765 0.23502C11.4522 -0.0783399 10.9446 -0.0783399 10.6312 0.23502L6 4.86565L1.36937 0.23502Z" fill="#6C5CE7"/>
</svg>
